<svg width="16" height="16" viewBox="0 0 16 16" fill="none" xmlns="http://www.w3.org/2000/svg">
<g clip-path="url(#clip0_91_193)">
<path d="M2.32892 15.044H1.19521L1.99688 14.2424C2.42913 13.8101 2.69906 13.2479 2.77163 12.638C1.64367 11.8978 0.818867 10.9239 0.377348 9.8071C-0.0638584 8.69111 -0.119303 7.4626 0.217026 6.25435C0.62057 4.80456 1.56707 3.48314 2.88211 2.53345C4.31113 1.50148 6.09011 0.955994 8.02674 0.955994C10.4664 0.955994 12.5227 1.65692 13.9734 2.98295C15.2803 4.17758 16 5.78897 16 7.52033C16 8.36148 15.8287 9.17993 15.491 9.95296C15.1414 10.7529 14.6296 11.4651 13.9697 12.0699C12.5171 13.4011 10.462 14.1048 8.02671 14.1048C7.12267 14.1048 6.1793 13.9841 5.33706 13.7627C4.53983 14.5805 3.45953 15.044 2.32892 15.044ZM8.02674 1.8952C4.14349 1.8952 1.7607 4.21105 1.12182 6.50621C0.518103 8.67514 1.40806 10.7246 3.50248 11.9885L3.7365 12.1297L3.7293 12.4029C3.71502 12.9437 3.5861 13.4646 3.35534 13.9355C3.91726 13.7453 4.42716 13.4006 4.82644 12.9289L5.02499 12.6943L5.31943 12.7824C6.14571 13.0295 7.10717 13.1656 8.02674 13.1656C12.8596 13.1656 15.0608 10.2393 15.0608 7.52033C15.0608 6.05593 14.4496 4.6907 13.3397 3.67617C12.0651 2.51106 10.2279 1.8952 8.02674 1.8952Z" fill="white"/>
</g>
<defs>
<clipPath id="clip0_91_193">
<rect width="16" height="16" fill="white"/>
</clipPath>
</defs>
</svg>
