<svg width="22" height="22" viewBox="0 0 22 22" fill="none" xmlns="http://www.w3.org/2000/svg">
<path d="M21.9185 11.2605C21.7453 11.5126 17.5817 17.4169 10.9999 17.4169C5.35226 17.4169 0.319682 11.5465 0.107928 11.2962C-0.0359761 11.1257 -0.0359761 10.8755 0.107928 10.7041C0.319682 10.4538 5.35226 4.58338 10.9999 4.58338C16.6476 4.58338 21.6802 10.4538 21.8919 10.7041C22.0249 10.8617 22.0368 11.09 21.9185 11.2605ZM10.9999 5.50005C6.47247 5.50005 2.16771 9.81762 1.07414 11.0001C2.16591 12.1836 6.46607 16.5002 10.9999 16.5002C16.2974 16.5002 20.0366 12.1891 20.9496 11.0249C19.8954 9.87996 15.5659 5.50005 10.9999 5.50005Z" fill="white"/>
<path d="M11 14.6669C8.97778 14.6669 7.33325 13.0223 7.33325 11.0002C7.33325 8.97796 8.97778 7.33343 11 7.33343C13.0221 7.33343 14.6667 8.97796 14.6667 11.0002C14.6667 13.0223 13.0221 14.6669 11 14.6669ZM11 8.25006C9.48379 8.25006 8.24992 9.48393 8.24992 11.0001C8.24992 12.5163 9.48379 13.7502 11 13.7502C12.5161 13.7502 13.75 12.5163 13.75 11.0001C13.75 9.48393 12.5161 8.25006 11 8.25006Z" fill="white"/>
</svg>
