<svg width="116" height="41" viewBox="0 0 116 41" fill="none" xmlns="http://www.w3.org/2000/svg">
<path d="M25.15 7.90024C22.05 8.20024 19.6 9.30024 17.8 11.2002C16 13.1002 14.75 16.2002 14.05 20.5002H22.9L19.6 39.2502H0.850001L4.15 20.5002C6.55 7.80024 14 1.00024 26.5 0.10024L25.15 7.90024ZM50.65 7.90024C47.55 8.20024 45.1 9.30024 43.3 11.2002C41.5 13.1002 40.25 16.2002 39.55 20.5002H48.4L45.1 39.2502H26.35L29.65 20.5002C32.05 7.80024 39.5 1.00024 52 0.10024L50.65 7.90024ZM71.4707 1.00024H90.2207L86.9207 19.7502C84.5207 32.4502 77.0707 39.2502 64.5707 40.1502L65.9207 32.3502C69.0207 32.0502 71.4707 30.9502 73.2707 29.0502C75.0707 27.1502 76.3207 24.0502 77.0207 19.7502H68.1707L71.4707 1.00024ZM96.9707 1.00024H115.721L112.421 19.7502C110.221 32.5502 102.771 39.3502 90.0707 40.1502L91.4207 32.3502C94.5207 32.1502 96.9707 31.1002 98.7707 29.2002C100.571 27.3002 101.871 24.1502 102.671 19.7502H93.6707L96.9707 1.00024Z" fill="#161B29"/>
</svg>
